<svg width="141" height="32" viewBox="0 0 141 32" fill="none" xmlns="http://www.w3.org/2000/svg">
<path d="M15.868 0C7.10443 0 0 7.16341 0 16.0003C0 24.8372 7.10443 32 15.868 32C24.6316 32 31.7365 24.8366 31.7365 16.0003C31.7365 7.16397 24.6321 0 15.868 0ZM15.8669 3.44871C22.3266 3.44871 27.6436 8.35553 28.3162 14.653H22.582C22.4939 14.653 22.4092 14.6181 22.3461 14.5551L18.3949 10.5964C18.343 10.5441 18.2722 10.5148 18.1986 10.5148H13.5313C13.4577 10.5148 13.3874 10.5441 13.335 10.5964L9.37033 14.5714C9.31847 14.6237 9.24764 14.653 9.17402 14.653H3.41976C4.09234 8.35553 9.40714 3.44871 15.8669 3.44871ZM15.8663 28.5518C13.4738 28.5518 11.2414 27.8804 9.34245 26.7147L11.702 24.3491C11.7545 24.2962 11.8247 24.267 11.8983 24.267H19.8337C19.9074 24.267 19.9782 24.2962 20.0306 24.3485L22.3924 26.7147C20.4907 27.8804 18.2583 28.5518 15.8663 28.5518ZM25.2874 24.267H20.4388C20.3652 24.267 20.2944 24.2377 20.242 24.1854L17.6069 21.5431C17.5545 21.4902 17.4836 21.461 17.41 21.461H14.321C14.2473 21.461 14.1765 21.4902 14.1241 21.5431L11.4884 24.1854C11.4366 24.2377 11.3658 24.267 11.2921 24.267H6.44635C6.33091 24.1371 6.21937 24.0032 6.11007 23.866L9.75625 20.2098C9.80868 20.1575 9.8795 20.1277 9.95312 20.1277H21.7745C21.8481 20.1277 21.9189 20.157 21.9714 20.2093L25.6242 23.866C25.5155 24.0027 25.4028 24.1359 25.2874 24.267ZM27.6927 20.1288H22.5592C22.4856 20.1288 22.4147 20.0996 22.3623 20.0467L18.3949 16.0711C18.343 16.0188 18.2722 15.9896 18.1986 15.9896H13.5313C13.4577 15.9896 13.3874 16.0188 13.335 16.0711L9.37033 20.0467C9.31847 20.099 9.24764 20.1288 9.17402 20.1288H4.04382C3.89269 19.6942 3.76497 19.2482 3.66236 18.7922H5.59755C5.67172 18.7922 5.74199 18.763 5.79441 18.7107L9.75904 14.7356C9.81091 14.6833 9.88173 14.6541 9.95535 14.6541H21.7745C21.8481 14.6541 21.9189 14.6833 21.9714 14.7356L25.9421 18.7107C25.994 18.763 26.0648 18.7922 26.1384 18.7922H28.0736C27.9705 19.2482 27.8439 19.6942 27.6927 20.1288Z" fill="white"/>
<path d="M57.8644 7.73304H54.5601C54.4837 7.73304 54.4167 7.78533 54.3978 7.86012L51.5647 19.0183C51.5357 19.1313 51.3762 19.1307 51.3483 19.0171L48.5822 7.86068C48.5632 7.7859 48.4963 7.73304 48.4199 7.73304H44.8624C44.786 7.73304 44.719 7.7859 44.7001 7.86068L41.935 19.0138C41.9066 19.1273 41.7471 19.1273 41.7187 19.0143L38.9308 7.86068C38.9124 7.7859 38.8454 7.73304 38.7685 7.73304H35.3242C35.2138 7.73304 35.1334 7.83932 35.163 7.94672L39.6145 24.1433C39.6346 24.2164 39.7009 24.267 39.7757 24.267H43.3605C43.4369 24.267 43.5038 24.2147 43.5228 24.1404L46.4752 12.5488C46.5037 12.4363 46.662 12.4363 46.691 12.5488L49.6658 24.1404C49.6847 24.2152 49.7517 24.267 49.8275 24.267H53.3895C53.4648 24.267 53.5306 24.2164 53.5506 24.1438L58.0256 7.94728C58.0551 7.83932 57.9748 7.73304 57.8644 7.73304Z" fill="white"/>
<path d="M68.7444 11.9139H65.6592C65.5667 11.9139 65.4919 11.9892 65.4919 12.0826V12.8007C65.4919 12.9002 65.3748 12.9497 65.3029 12.8816C64.4608 12.0854 63.3772 11.6777 62.0716 11.6777C59.05 11.6777 56.8009 14.0159 56.8009 18.1022C56.8009 22.1886 59.05 24.5031 62.0716 24.5031C63.3772 24.5031 64.4608 24.0955 65.3029 23.2992C65.3748 23.2312 65.4919 23.2807 65.4919 23.3802V24.0983C65.4919 24.1916 65.5667 24.267 65.6592 24.267H68.7444C68.837 24.267 68.9117 24.1916 68.9117 24.0983V12.0826C68.9117 11.9892 68.837 11.9139 68.7444 11.9139ZM62.9148 21.551C61.3221 21.551 60.3383 20.275 60.3383 18.1022C60.3383 15.9294 61.3221 14.6299 62.9148 14.6299C64.5076 14.6299 65.4919 15.9294 65.4919 18.1022C65.4919 20.275 64.5082 21.551 62.9148 21.551Z" fill="white"/>
<path d="M102.397 11.6777C101.295 11.6777 100.048 12.0117 99.0661 12.8181C98.9925 12.8783 98.8831 12.8271 98.8831 12.7321V12.0826C98.8831 11.9892 98.8079 11.9139 98.7158 11.9139H95.6301C95.5376 11.9139 95.4628 11.9892 95.4628 12.0826V24.0983C95.4628 24.1916 95.5376 24.267 95.6301 24.267H98.7158C98.8079 24.267 98.8831 24.1916 98.8831 24.0983V17.1339C98.8831 15.339 100.101 14.6299 101.202 14.6299C102.467 14.6299 103.311 15.3154 103.311 16.8977V24.0983C103.311 24.1916 103.385 24.267 103.478 24.267H106.563C106.656 24.267 106.73 24.1916 106.73 24.0983V16.1656C106.73 13.0948 104.974 11.6777 102.397 11.6777Z" fill="white"/>
<path d="M119.705 6.78834H116.619C116.527 6.78834 116.452 6.86369 116.452 6.95704V12.8007C116.452 12.9002 116.335 12.9497 116.263 12.8816C115.421 12.0854 114.338 11.6777 113.032 11.6777C110.01 11.6777 107.761 14.0159 107.761 18.1022C107.761 22.1886 110.01 24.5031 113.032 24.5031C114.338 24.5031 115.421 24.0955 116.263 23.2992C116.335 23.2312 116.452 23.2807 116.452 23.3802V24.0983C116.452 24.1916 116.527 24.267 116.619 24.267H119.705C119.797 24.267 119.872 24.1916 119.872 24.0983V6.95704C119.872 6.86369 119.797 6.78834 119.705 6.78834ZM113.876 21.551C112.282 21.551 111.298 20.275 111.298 18.1022C111.298 15.9294 112.282 14.6299 113.876 14.6299C115.469 14.6299 116.452 15.9294 116.452 18.1022C116.452 20.275 115.468 21.551 113.876 21.551Z" fill="white"/>
<path d="M126.759 11.6777C123.316 11.6777 120.903 14.0395 120.903 18.1022C120.903 22.165 123.433 24.5031 126.876 24.5031C129.562 24.5031 131.694 23.1434 132.351 20.7485C132.38 20.6411 132.299 20.5348 132.189 20.5348H129.195C129.127 20.5348 129.066 20.5764 129.041 20.64C128.744 21.3811 127.906 21.8344 126.876 21.8344C125.448 21.8344 124.48 20.9487 124.229 19.0492C124.215 18.9485 124.293 18.858 124.395 18.858H132.317C132.405 18.858 132.48 18.7877 132.484 18.6983C132.716 13.7814 129.772 11.6777 126.759 11.6777ZM128.894 16.4962H124.544C124.432 16.4962 124.351 16.3872 124.383 16.2792C124.79 14.9414 125.669 14.3229 126.759 14.3229C127.85 14.3229 128.734 14.965 129.057 16.2888C129.083 16.3945 129.002 16.4962 128.894 16.4962Z" fill="white"/>
<path d="M140.833 11.6777H140.532C139.373 11.6777 138.092 12.1917 137.146 13.3922C137.081 13.4755 136.948 13.4288 136.948 13.3225V12.0826C136.948 11.9892 136.873 11.9139 136.781 11.9139H133.695C133.602 11.9139 133.527 11.9892 133.527 12.0826V24.0983C133.527 24.1916 133.602 24.267 133.695 24.267H136.781C136.873 24.267 136.948 24.1916 136.948 24.0983V17.9605C136.948 15.953 138.728 15.1731 140.532 15.1731H140.833C140.925 15.1731 141 15.0978 141 15.0044V11.8464C141 11.7531 140.925 11.6777 140.833 11.6777Z" fill="white"/>
<path d="M89.2987 9.52797C89.3912 9.52797 89.466 9.45262 89.466 9.35927V6.95647C89.466 6.86313 89.3912 6.78778 89.2987 6.78778H87.8146C85.2376 6.78778 83.5277 8.06312 83.5277 10.7088V11.7446C83.5277 11.838 83.4529 11.9133 83.3604 11.9133H78.7338C78.6613 11.9133 78.5966 11.9606 78.5743 12.0303L76.0206 20.0456C75.9877 20.1485 75.8432 20.1502 75.8087 20.0473L73.0983 12.0275C73.0754 11.9589 73.0113 11.9133 72.9399 11.9133H69.6518C69.5335 11.9133 69.4527 12.0337 69.4962 12.1444L74.2388 24.1691C74.2639 24.2321 74.265 24.3024 74.2427 24.3665L73.9727 25.1414C73.6214 26.1097 73.2935 26.2514 72.6845 26.2514H71.3014C71.2568 26.2514 71.2144 26.2694 71.1832 26.3009L69.9919 27.502C69.9267 27.5678 69.9267 27.6746 69.9919 27.7404L71.1832 28.9415C71.2144 28.973 71.2573 28.991 71.3014 28.991H73.2466C75.5421 28.991 76.4327 27.7865 77.2057 25.5423L80.9695 14.8605C80.9935 14.793 81.0565 14.748 81.1274 14.748H83.3598C83.4524 14.748 83.5271 14.8233 83.5271 14.9167V24.0983C83.5271 24.1916 83.6018 24.267 83.6944 24.267H86.7801C86.8727 24.267 86.9474 24.1916 86.9474 24.0983V14.9167C86.9474 14.8233 87.0222 14.748 87.1147 14.748H89.2981C89.3907 14.748 89.4654 14.6726 89.4654 14.5793V12.082C89.4654 11.9887 89.3907 11.9133 89.2981 11.9133H87.1147C87.0222 11.9133 86.9474 11.838 86.9474 11.7446V10.7088C86.9474 9.90585 87.3925 9.52797 88.2357 9.52797H89.2987Z" fill="white"/>
<path d="M93.7496 11.9139H90.6639C90.5715 11.9139 90.4966 11.9894 90.4966 12.0826V24.0983C90.4966 24.1914 90.5715 24.267 90.6639 24.267H93.7496C93.842 24.267 93.9169 24.1914 93.9169 24.0983V12.0826C93.9169 11.9894 93.842 11.9139 93.7496 11.9139Z" fill="white"/>
<path d="M93.8478 6.78834H90.6645C90.5719 6.78834 90.4971 6.86369 90.4971 6.95704V9.35983C90.4971 9.45318 90.5719 9.52853 90.6645 9.52853H93.8478C93.8924 9.52853 93.9348 9.51054 93.966 9.47905L95.1572 8.27793C95.2225 8.21214 95.2225 8.10529 95.1572 8.0395L93.966 6.83839C93.9348 6.8069 93.8918 6.7889 93.8478 6.7889V6.78834Z" fill="white"/>
</svg>
